<?xml version="1.0" encoding="UTF-8" standalone="no"?>
<!-- Created with Inkscape (http://www.inkscape.org/) -->

<svg
   xmlns:dc="http://purl.org/dc/elements/1.1/"
   xmlns:cc="http://creativecommons.org/ns#"
   xmlns:rdf="http://www.w3.org/1999/02/22-rdf-syntax-ns#"
   xmlns:svg="http://www.w3.org/2000/svg"
   xmlns="http://www.w3.org/2000/svg"
   xmlns:sodipodi="http://sodipodi.sourceforge.net/DTD/sodipodi-0.dtd"
   xmlns:inkscape="http://www.inkscape.org/namespaces/inkscape"
   width="70.866142"
   height="70.866142"
   id="svg3037"
   version="1.1"
   inkscape:version="0.48.4 r9939"
   sodipodi:docname="eight.dxf">
  <defs
     id="defs3039" />
  <sodipodi:namedview
     id="base"
     pagecolor="#ffffff"
     bordercolor="#666666"
     borderopacity="1.0"
     inkscape:pageopacity="0.0"
     inkscape:pageshadow="2"
     inkscape:zoom="5.6"
     inkscape:cx="37.313714"
     inkscape:cy="36.540408"
     inkscape:document-units="mm"
     inkscape:current-layer="layer1"
     showgrid="false"
     units="mm"
     inkscape:window-width="899"
     inkscape:window-height="644"
     inkscape:window-x="931"
     inkscape:window-y="276"
     inkscape:window-maximized="0" />
  <metadata
     id="metadata3042">
    <rdf:RDF>
      <cc:Work
         rdf:about="">
        <dc:format>image/svg+xml</dc:format>
        <dc:type
           rdf:resource="http://purl.org/dc/dcmitype/StillImage" />
        <dc:title></dc:title>
      </cc:Work>
    </rdf:RDF>
  </metadata>
  <g
     inkscape:label="Layer 1"
     inkscape:groupmode="layer"
     id="layer1"
     transform="translate(0,-981.49605)">
    <g
       transform="scale(1.0331005,0.96796003)"
       style="font-size:44.49382019px;font-style:italic;font-variant:normal;font-weight:bold;font-stretch:normal;line-height:125%;letter-spacing:0px;word-spacing:0px;fill:#000000;fill-opacity:1;stroke:none;font-family:URW Chancery L;-inkscape-font-specification:URW Chancery L Bold Italic"
       id="text3049">
      <path
         d="m 35.269149,1049.698 -1.968852,1.2124 -2.969962,1.6797 -2.196882,3.02 -0.695216,3.2536 1.3515,3.2703 3.453832,1.2681 3.804222,-0.723 3.804221,-1.8577 2.719684,-2.9643 1.017797,-3.6652 -0.200222,-1.2792 -0.600666,-1.2125 -0.70634,-0.8676 -1.874302,-1.535 -0.372636,-0.3004 -0.606228,-0.5005 2.03003,-1.168 2.463846,-1.6351 1.846493,-2.5084 0.511679,-2.208 -1.0901,-2.5028 -2.825356,-0.9677 -6.306997,2.2581 -2.769742,5.1279 0.489433,2.3192 1.690764,2.4861 m 0.889876,0.8009 1.312568,1.2792 0.64516,0.6785 1.234704,1.7297 0.367074,1.9633 -1.568408,3.871 -3.503888,1.7352 -2.436035,-1.1735 -0.901001,-3.1424 0.978865,-3.6151 2.847604,-2.7475 0.428253,-0.2225 0.595104,-0.3559 m 2.180198,-2.7141 -1.362623,-2.0468 -0.461624,-2.1802 1.145717,-3.248 2.680751,-1.3793 1.67408,0.7786 0.639599,1.98 -1.140155,3.4316 -3.175745,2.6641"
         id="path3054"
         inkscape:connector-curvature="0"
         sodipodi:nodetypes="ccccccccccccccccccccccccccccccccccccccccccccccccc" />
    </g>
  </g>
</svg>
