  0
SECTION
  2
HEADER
  9
$ACADVER
  1
AC1014
  9
$HANDSEED
  5
FFFF
  9
$MEASUREMENT
 70
     1
  0
ENDSEC
  0
SECTION
  2
TABLES
  0
TABLE
  2
VPORT
  5
8
330
0
100
AcDbSymbolTable
 70
     4
  0
VPORT
  5
2E
330
8
100
AcDbSymbolTableRecord
100
AcDbViewportTableRecord
  2
*ACTIVE
 70
     0
 10
0.0
 20
0.0
 11
1.0
 21
1.0
 12
210.0
 22
148.5
 13
0.0
 23
0.0
 14
10.0
 24
10.0
 15
10.0
 25
10.0
 16
0.0
 26
0.0
 36
1.0
 17
0.0
 27
0.0
 37
0.0
 40
341.0
 41
1.24
 42
50.0
 43
0.0
 44
0.0
 50
0.0
 51
0.0
 71
     0
 72
   100
 73
     1
 74
     3
 75
     0
 76
     0
 77
     0
 78
     0
  0
ENDTAB
  0
TABLE
  2
LTYPE
  5
5
330
0
100
AcDbSymbolTable
 70
     1
  0
LTYPE
  5
14
330
5
100
AcDbSymbolTableRecord
100
AcDbLinetypeTableRecord
  2
BYBLOCK
 70
     0
  3

 72
    65
 73
     0
 40
0.0
  0
LTYPE
  5
15
330
5
100
AcDbSymbolTableRecord
100
AcDbLinetypeTableRecord
  2
BYLAYER
 70
     0
  3

 72
    65
 73
     0
 40
0.0
  0
LTYPE
  5
16
330
5
100
AcDbSymbolTableRecord
100
AcDbLinetypeTableRecord
  2
CONTINUOUS
 70
     0
  3
Solid line
 72
    65
 73
     0
 40
0.0
  0
ENDTAB
  0
TABLE
  2
LAYER
  5
2
100
AcDbSymbolTable
 70
2
  0
LAYER
  5
50
100
AcDbSymbolTableRecord
100
AcDbLayerTableRecord
  2
0
 70
0
  6
CONTINUOUS
  0
LAYER
  5
51
100
AcDbSymbolTableRecord
100
AcDbLayerTableRecord
  2
Layer_1
 70
0
  6
CONTINUOUS
  0
ENDTAB
  0
TABLE
  2
STYLE
  5
3
330
0
100
AcDbSymbolTable
 70
     1
  0
STYLE
  5
11
330
3
100
AcDbSymbolTableRecord
100
AcDbTextStyleTableRecord
  2
STANDARD
 70
     0
 40
0.0
 41
1.0
 50
0.0
 71
     0
 42
2.5
  3
txt
  4

  0
ENDTAB
  0
TABLE
  2
VIEW
  5
6
330
0
100
AcDbSymbolTable
 70
     0
  0
ENDTAB
  0
TABLE
  2
UCS
  5
7
330
0
100
AcDbSymbolTable
 70
     0
  0
ENDTAB
  0
TABLE
  2
APPID
  5
9
330
0
100
AcDbSymbolTable
 70
     2
  0
APPID
  5
12
330
9
100
AcDbSymbolTableRecord
100
AcDbRegAppTableRecord
  2
ACAD
 70
     0
  0
ENDTAB
  0
TABLE
  2
DIMSTYLE
  5
A
330
0
100
AcDbSymbolTable
 70
     1
  0
DIMSTYLE
105
27
330
A
100
AcDbSymbolTableRecord
100
AcDbDimStyleTableRecord
  2
ISO-25
 70
     0
  3

  4

  5

  6

  7

 40
1.0
 41
2.5
 42
0.625
 43
3.75
 44
1.25
 45
0.0
 46
0.0
 47
0.0
 48
0.0
140
2.5
141
2.5
142
0.0
143
0.03937007874016
144
1.0
145
0.0
146
1.0
147
0.625
 71
     0
 72
     0
 73
     0
 74
     0
 75
     0
 76
     0
 77
     1
 78
     8
170
     0
171
     3
172
     1
173
     0
174
     0
175
     0
176
     0
177
     0
178
     0
270
     2
271
     2
272
     2
273
     2
274
     3
340
11
275
     0
280
     0
281
     0
282
     0
283
     0
284
     8
285
     0
286
     0
287
     3
288
     0
  0
ENDTAB
  0
TABLE
  2
BLOCK_RECORD
  5
1
330
0
100
AcDbSymbolTable
 70
     1
  0
BLOCK_RECORD
  5
1F
330
1
100
AcDbSymbolTableRecord
100
AcDbBlockTableRecord
  2
*MODEL_SPACE
  0
BLOCK_RECORD
  5
1B
330
1
100
AcDbSymbolTableRecord
100
AcDbBlockTableRecord
  2
*PAPER_SPACE
  0
ENDTAB
  0
ENDSEC
  0
SECTION
  2
BLOCKS
  0
BLOCK
  5
20
330
1F
100
AcDbEntity
  8
0
100
AcDbBlockBegin
  2
*MODEL_SPACE
 70
     0
 10
0.0
 20
0.0
 30
0.0
  3
*MODEL_SPACE
  1

  0
ENDBLK
  5
21
330
1F
100
AcDbEntity
  8
0
100
AcDbBlockEnd
  0
BLOCK
  5
1C
330
1B
100
AcDbEntity
 67
     1
  8
0
100
AcDbBlockBegin
  2
*PAPER_SPACE
  1

  0
ENDBLK
  5
1D
330
1B
100
AcDbEntity
 67
     1
  8
0
100
AcDbBlockEnd
  0
ENDSEC
  0
SECTION
  2
ENTITIES
  0
LWPOLYLINE
  5
100
100
AcDbEntity
  8
Layer_1
 62
7
100
AcDbPolyline
 90
85
 70
0
 10
5.250000
 20
6.500006
 30
0.0
 10
5.438832
 20
6.500006
 30
0.0
 10
5.627664
 20
6.500006
 30
0.0
 10
5.816496
 20
6.500006
 30
0.0
 10
6.005328
 20
6.500006
 30
0.0
 10
6.332037
 20
6.503121
 30
0.0
 10
6.658746
 20
6.506236
 30
0.0
 10
6.985455
 20
6.509350
 30
0.0
 10
7.312164
 20
6.512465
 30
0.0
 10
7.656858
 20
6.509350
 30
0.0
 10
8.001551
 20
6.506236
 30
0.0
 10
8.346244
 20
6.503121
 30
0.0
 10
8.690937
 20
6.500006
 30
0.0
 10
8.813828
 20
6.500006
 30
0.0
 10
8.936718
 20
6.500006
 30
0.0
 10
9.059609
 20
6.500006
 30
0.0
 10
9.182499
 20
6.500006
 30
0.0
 10
9.254436
 20
6.581468
 30
0.0
 10
9.326371
 20
6.662931
 30
0.0
 10
9.398308
 20
6.744393
 30
0.0
 10
9.470243
 20
6.825855
 30
0.0
 10
9.157584
 20
6.844826
 30
0.0
 10
8.803337
 20
6.878577
 30
0.0
 10
8.473818
 20
6.919096
 30
0.0
 10
8.235343
 20
6.958482
 30
0.0
 10
8.105708
 20
7.009958
 30
0.0
 10
8.007545
 20
7.089721
 30
0.0
 10
7.945351
 20
7.194373
 30
0.0
 10
7.923620
 20
7.320545
 30
0.0
 10
7.928304
 20
7.428594
 30
0.0
 10
7.943103
 20
7.551340
 30
0.0
 10
7.969143
 20
7.685411
 30
0.0
 10
8.007547
 20
7.827410
 30
0.0
 10
8.049884
 20
8.011061
 30
0.0
 10
8.121445
 20
8.337277
 30
0.0
 10
8.219982
 20
8.794733
 30
0.0
 10
8.343248
 20
9.372131
 30
0.0
 10
8.687379
 20
10.881231
 30
0.0
 10
8.956202
 20
12.031667
 30
0.0
 10
9.164329
 20
12.890203
 30
0.0
 10
9.326373
 20
13.523608
 30
0.0
 10
9.224463
 20
13.469300
 30
0.0
 10
9.122554
 20
13.414992
 30
0.0
 10
9.020645
 20
13.360684
 30
0.0
 10
8.918735
 20
13.306376
 30
0.0
 10
8.430733
 20
13.043500
 30
0.0
 10
8.134933
 20
12.887004
 30
0.0
 10
7.922310
 20
12.780257
 30
0.0
 10
7.683835
 20
12.666742
 30
0.0
 10
7.481702
 20
12.573614
 30
0.0
 10
7.217749
 20
12.455569
 30
0.0
 10
6.893101
 20
12.310370
 30
0.0
 10
6.508880
 20
12.135752
 30
0.0
 10
6.598800
 20
12.090505
 30
0.0
 10
6.688720
 20
12.045229
 30
0.0
 10
6.778640
 20
11.999982
 30
0.0
 10
6.868560
 20
11.954735
 30
0.0
 10
7.060764
 20
12.021303
 30
0.0
 10
7.219248
 20
12.079944
 30
0.0
 10
7.364244
 20
12.136319
 30
0.0
 10
7.515984
 20
12.196091
 30
0.0
 10
7.605904
 20
12.232306
 30
0.0
 10
7.695824
 20
12.268493
 30
0.0
 10
7.785744
 20
12.304707
 30
0.0
 10
7.875664
 20
12.340922
 30
0.0
 10
7.923059
 20
12.361309
 30
0.0
 10
7.994059
 20
12.387642
 30
0.0
 10
8.089786
 20
12.420657
 30
0.0
 10
8.211365
 20
12.461572
 30
0.0
 10
7.926618
 20
11.227579
 30
0.0
 10
7.641872
 20
9.993615
 30
0.0
 10
7.357125
 20
8.759622
 30
0.0
 10
7.072379
 20
7.525658
 30
0.0
 10
6.995198
 20
7.228096
 30
0.0
 10
6.913520
 20
7.064040
 30
0.0
 10
6.782387
 20
6.986004
 30
0.0
 10
6.556838
 20
6.946391
 30
0.0
 10
6.213082
 20
6.905476
 30
0.0
 10
5.937889
 20
6.872461
 30
0.0
 10
5.732384
 20
6.846411
 30
0.0
 10
5.597692
 20
6.825741
 30
0.0
 10
5.510769
 20
6.744279
 30
0.0
 10
5.423846
 20
6.662817
 30
0.0
 10
5.336924
 20
6.581355
 30
0.0
 10
5.250001
 20
6.499893
 30
0.0
  0
LWPOLYLINE
  5
101
100
AcDbEntity
  8
Layer_1
 62
7
100
AcDbPolyline
 90
85
 70
0
 10
10.518748
 20
6.500006
 30
0.0
 10
10.707580
 20
6.500006
 30
0.0
 10
10.896412
 20
6.500006
 30
0.0
 10
11.085244
 20
6.500006
 30
0.0
 10
11.274076
 20
6.500006
 30
0.0
 10
11.600785
 20
6.503121
 30
0.0
 10
11.927494
 20
6.506236
 30
0.0
 10
12.254203
 20
6.509350
 30
0.0
 10
12.580912
 20
6.512465
 30
0.0
 10
12.925606
 20
6.509350
 30
0.0
 10
13.270299
 20
6.506236
 30
0.0
 10
13.614992
 20
6.503121
 30
0.0
 10
13.959685
 20
6.500006
 30
0.0
 10
14.082576
 20
6.500006
 30
0.0
 10
14.205466
 20
6.500006
 30
0.0
 10
14.328357
 20
6.500006
 30
0.0
 10
14.451248
 20
6.500006
 30
0.0
 10
14.523184
 20
6.581468
 30
0.0
 10
14.595120
 20
6.662931
 30
0.0
 10
14.667056
 20
6.744393
 30
0.0
 10
14.738992
 20
6.825855
 30
0.0
 10
14.426332
 20
6.844826
 30
0.0
 10
14.072085
 20
6.878577
 30
0.0
 10
13.742566
 20
6.919096
 30
0.0
 10
13.504091
 20
6.958482
 30
0.0
 10
13.374456
 20
7.009958
 30
0.0
 10
13.276294
 20
7.089721
 30
0.0
 10
13.214099
 20
7.194373
 30
0.0
 10
13.192368
 20
7.320545
 30
0.0
 10
13.197052
 20
7.428594
 30
0.0
 10
13.211851
 20
7.551340
 30
0.0
 10
13.237891
 20
7.685411
 30
0.0
 10
13.276295
 20
7.827410
 30
0.0
 10
13.318632
 20
8.011061
 30
0.0
 10
13.390193
 20
8.337277
 30
0.0
 10
13.488731
 20
8.794733
 30
0.0
 10
13.611996
 20
9.372131
 30
0.0
 10
13.956127
 20
10.881231
 30
0.0
 10
14.224950
 20
12.031667
 30
0.0
 10
14.433077
 20
12.890203
 30
0.0
 10
14.595121
 20
13.523608
 30
0.0
 10
14.493211
 20
13.469300
 30
0.0
 10
14.391302
 20
13.414992
 30
0.0
 10
14.289393
 20
13.360684
 30
0.0
 10
14.187484
 20
13.306376
 30
0.0
 10
13.699481
 20
13.043500
 30
0.0
 10
13.403681
 20
12.887004
 30
0.0
 10
13.191058
 20
12.780257
 30
0.0
 10
12.952583
 20
12.666742
 30
0.0
 10
12.750450
 20
12.573614
 30
0.0
 10
12.486498
 20
12.455569
 30
0.0
 10
12.161849
 20
12.310370
 30
0.0
 10
11.777629
 20
12.135752
 30
0.0
 10
11.867549
 20
12.090505
 30
0.0
 10
11.957468
 20
12.045229
 30
0.0
 10
12.047388
 20
11.999982
 30
0.0
 10
12.137308
 20
11.954735
 30
0.0
 10
12.329512
 20
12.021303
 30
0.0
 10
12.487996
 20
12.079944
 30
0.0
 10
12.632992
 20
12.136319
 30
0.0
 10
12.784732
 20
12.196091
 30
0.0
 10
12.874652
 20
12.232306
 30
0.0
 10
12.964572
 20
12.268493
 30
0.0
 10
13.054492
 20
12.304707
 30
0.0
 10
13.144412
 20
12.340922
 30
0.0
 10
13.191807
 20
12.361309
 30
0.0
 10
13.262807
 20
12.387642
 30
0.0
 10
13.358534
 20
12.420657
 30
0.0
 10
13.480113
 20
12.461572
 30
0.0
 10
13.195367
 20
11.227579
 30
0.0
 10
12.910620
 20
9.993615
 30
0.0
 10
12.625874
 20
8.759622
 30
0.0
 10
12.341127
 20
7.525658
 30
0.0
 10
12.263946
 20
7.228096
 30
0.0
 10
12.182268
 20
7.064040
 30
0.0
 10
12.051135
 20
6.986004
 30
0.0
 10
11.825586
 20
6.946391
 30
0.0
 10
11.481830
 20
6.905476
 30
0.0
 10
11.206637
 20
6.872461
 30
0.0
 10
11.001132
 20
6.846411
 30
0.0
 10
10.866439
 20
6.825741
 30
0.0
 10
10.779517
 20
6.744279
 30
0.0
 10
10.692594
 20
6.662817
 30
0.0
 10
10.605671
 20
6.581355
 30
0.0
 10
10.518749
 20
6.499893
 30
0.0
  0
ENDSEC
  0
SECTION
  2
OBJECTS
  0
DICTIONARY
  5
C
330
0
100
AcDbDictionary
  3
ACAD_GROUP
350
D
  3
ACAD_MLINESTYLE
350
17
  0
DICTIONARY
  5
D
330
C
100
AcDbDictionary
  0
DICTIONARY
  5
1A
330
C
100
AcDbDictionary
  0
DICTIONARY
  5
17
330
C
100
AcDbDictionary
  3
STANDARD
350
18
  0
DICTIONARY
  5
19
330
C
100
AcDbDictionary
  0
ENDSEC
  0
EOF
