<?xml version="1.0" encoding="UTF-8" standalone="no"?>
<!-- Created with Inkscape (http://www.inkscape.org/) -->

<svg
   xmlns:dc="http://purl.org/dc/elements/1.1/"
   xmlns:cc="http://creativecommons.org/ns#"
   xmlns:rdf="http://www.w3.org/1999/02/22-rdf-syntax-ns#"
   xmlns:svg="http://www.w3.org/2000/svg"
   xmlns="http://www.w3.org/2000/svg"
   xmlns:sodipodi="http://sodipodi.sourceforge.net/DTD/sodipodi-0.dtd"
   xmlns:inkscape="http://www.inkscape.org/namespaces/inkscape"
   width="70.866142"
   height="70.866142"
   id="svg3037"
   version="1.1"
   inkscape:version="0.48.4 r9939"
   sodipodi:docname="eight.svg">
  <defs
     id="defs3039" />
  <sodipodi:namedview
     id="base"
     pagecolor="#ffffff"
     bordercolor="#666666"
     borderopacity="1.0"
     inkscape:pageopacity="0.0"
     inkscape:pageshadow="2"
     inkscape:zoom="5.6"
     inkscape:cx="37.313714"
     inkscape:cy="36.540408"
     inkscape:document-units="mm"
     inkscape:current-layer="layer1"
     showgrid="false"
     units="mm"
     inkscape:window-width="899"
     inkscape:window-height="644"
     inkscape:window-x="931"
     inkscape:window-y="276"
     inkscape:window-maximized="0" />
  <metadata
     id="metadata3042">
    <rdf:RDF>
      <cc:Work
         rdf:about="">
        <dc:format>image/svg+xml</dc:format>
        <dc:type
           rdf:resource="http://purl.org/dc/dcmitype/StillImage" />
        <dc:title></dc:title>
      </cc:Work>
    </rdf:RDF>
  </metadata>
  <g
     inkscape:label="Layer 1"
     inkscape:groupmode="layer"
     id="layer1"
     transform="translate(0,-981.49605)">
    <g
       transform="scale(1.0331005,0.96796003)"
       style="font-size:44.49382019px;font-style:italic;font-variant:normal;font-weight:bold;font-stretch:normal;line-height:125%;letter-spacing:0px;word-spacing:0px;fill:#000000;fill-opacity:1;stroke:none;font-family:URW Chancery L;-inkscape-font-specification:URW Chancery L Bold Italic"
       id="text3049" />
    <g
       transform="scale(1.0011913,0.99881008)"
       style="font-size:42.80288696px;font-style:normal;font-variant:normal;font-weight:normal;font-stretch:normal;line-height:125%;letter-spacing:0px;word-spacing:0px;fill:#000000;fill-opacity:1;stroke:none;font-family:URW Chancery L;-inkscape-font-specification:Sans"
       id="text3094">
      <path
         d="m 28.312726,1029.5726 2.086641,0.7651 2.022437,0.2193 5.987053,-1.8245 5.056091,-4.6815 2.568173,-5.6661 1.02727,-6.4043 -1.193132,-4.7351 -3.343974,-1.6854 -3.456333,0.6956 -3.520538,1.9154 -2.776836,3.023 -0.947015,3.4402 1.385745,3.7667 3.536587,1.4553 2.332758,-0.519 4.387295,-2.4772 -0.829306,3.8736 -1.054021,2.718 -3.065757,3.847 -3.739902,1.375 -1.979633,-0.2996 -2.429064,-1.0701 -1.027269,1.1343 -1.02727,1.1343 m 15.323434,-14.2962 -2.557472,1.5837 -2.36486,0.5564 -2.568173,-1.2573 -1.02727,-3.1514 1.278737,-3.9057 3.301172,-1.5302 2.964099,1.4927 1.102176,4.0288 -0.0321,0.8829 -0.09631,1.3001"
         id="path3099"
         inkscape:connector-curvature="0"
         sodipodi:nodetypes="cccccccccccccccccccccccccccccccccccc" />
    </g>
  </g>
</svg>
