  0
SECTION
  2
HEADER
  9
$ACADVER
  1
AC1014
  9
$HANDSEED
  5
FFFF
  9
$MEASUREMENT
 70
     1
  0
ENDSEC
  0
SECTION
  2
TABLES
  0
TABLE
  2
VPORT
  5
8
330
0
100
AcDbSymbolTable
 70
     4
  0
VPORT
  5
2E
330
8
100
AcDbSymbolTableRecord
100
AcDbViewportTableRecord
  2
*ACTIVE
 70
     0
 10
0.0
 20
0.0
 11
1.0
 21
1.0
 12
210.0
 22
148.5
 13
0.0
 23
0.0
 14
10.0
 24
10.0
 15
10.0
 25
10.0
 16
0.0
 26
0.0
 36
1.0
 17
0.0
 27
0.0
 37
0.0
 40
341.0
 41
1.24
 42
50.0
 43
0.0
 44
0.0
 50
0.0
 51
0.0
 71
     0
 72
   100
 73
     1
 74
     3
 75
     0
 76
     0
 77
     0
 78
     0
  0
ENDTAB
  0
TABLE
  2
LTYPE
  5
5
330
0
100
AcDbSymbolTable
 70
     1
  0
LTYPE
  5
14
330
5
100
AcDbSymbolTableRecord
100
AcDbLinetypeTableRecord
  2
BYBLOCK
 70
     0
  3

 72
    65
 73
     0
 40
0.0
  0
LTYPE
  5
15
330
5
100
AcDbSymbolTableRecord
100
AcDbLinetypeTableRecord
  2
BYLAYER
 70
     0
  3

 72
    65
 73
     0
 40
0.0
  0
LTYPE
  5
16
330
5
100
AcDbSymbolTableRecord
100
AcDbLinetypeTableRecord
  2
CONTINUOUS
 70
     0
  3
Solid line
 72
    65
 73
     0
 40
0.0
  0
ENDTAB
  0
TABLE
  2
LAYER
  5
2
100
AcDbSymbolTable
 70
2
  0
LAYER
  5
50
100
AcDbSymbolTableRecord
100
AcDbLayerTableRecord
  2
0
 70
0
  6
CONTINUOUS
  0
LAYER
  5
51
100
AcDbSymbolTableRecord
100
AcDbLayerTableRecord
  2
Layer_1
 70
0
  6
CONTINUOUS
  0
ENDTAB
  0
TABLE
  2
STYLE
  5
3
330
0
100
AcDbSymbolTable
 70
     1
  0
STYLE
  5
11
330
3
100
AcDbSymbolTableRecord
100
AcDbTextStyleTableRecord
  2
STANDARD
 70
     0
 40
0.0
 41
1.0
 50
0.0
 71
     0
 42
2.5
  3
txt
  4

  0
ENDTAB
  0
TABLE
  2
VIEW
  5
6
330
0
100
AcDbSymbolTable
 70
     0
  0
ENDTAB
  0
TABLE
  2
UCS
  5
7
330
0
100
AcDbSymbolTable
 70
     0
  0
ENDTAB
  0
TABLE
  2
APPID
  5
9
330
0
100
AcDbSymbolTable
 70
     2
  0
APPID
  5
12
330
9
100
AcDbSymbolTableRecord
100
AcDbRegAppTableRecord
  2
ACAD
 70
     0
  0
ENDTAB
  0
TABLE
  2
DIMSTYLE
  5
A
330
0
100
AcDbSymbolTable
 70
     1
  0
DIMSTYLE
105
27
330
A
100
AcDbSymbolTableRecord
100
AcDbDimStyleTableRecord
  2
ISO-25
 70
     0
  3

  4

  5

  6

  7

 40
1.0
 41
2.5
 42
0.625
 43
3.75
 44
1.25
 45
0.0
 46
0.0
 47
0.0
 48
0.0
140
2.5
141
2.5
142
0.0
143
0.03937007874016
144
1.0
145
0.0
146
1.0
147
0.625
 71
     0
 72
     0
 73
     0
 74
     0
 75
     0
 76
     0
 77
     1
 78
     8
170
     0
171
     3
172
     1
173
     0
174
     0
175
     0
176
     0
177
     0
178
     0
270
     2
271
     2
272
     2
273
     2
274
     3
340
11
275
     0
280
     0
281
     0
282
     0
283
     0
284
     8
285
     0
286
     0
287
     3
288
     0
  0
ENDTAB
  0
TABLE
  2
BLOCK_RECORD
  5
1
330
0
100
AcDbSymbolTable
 70
     1
  0
BLOCK_RECORD
  5
1F
330
1
100
AcDbSymbolTableRecord
100
AcDbBlockTableRecord
  2
*MODEL_SPACE
  0
BLOCK_RECORD
  5
1B
330
1
100
AcDbSymbolTableRecord
100
AcDbBlockTableRecord
  2
*PAPER_SPACE
  0
ENDTAB
  0
ENDSEC
  0
SECTION
  2
BLOCKS
  0
BLOCK
  5
20
330
1F
100
AcDbEntity
  8
0
100
AcDbBlockBegin
  2
*MODEL_SPACE
 70
     0
 10
0.0
 20
0.0
 30
0.0
  3
*MODEL_SPACE
  1

  0
ENDBLK
  5
21
330
1F
100
AcDbEntity
  8
0
100
AcDbBlockEnd
  0
BLOCK
  5
1C
330
1B
100
AcDbEntity
 67
     1
  8
0
100
AcDbBlockBegin
  2
*PAPER_SPACE
  1

  0
ENDBLK
  5
1D
330
1B
100
AcDbEntity
 67
     1
  8
0
100
AcDbBlockEnd
  0
ENDSEC
  0
SECTION
  2
ENTITIES
  0
LWPOLYLINE
  5
100
100
AcDbEntity
  8
Layer_1
 62
7
100
AcDbPolyline
 90
43
 70
0
 10
5.250000
 20
6.582021
 30
0.0
 10
5.620604
 20
6.582021
 30
0.0
 10
5.991207
 20
6.582021
 30
0.0
 10
6.632411
 20
6.587935
 30
0.0
 10
7.273614
 20
6.593850
 30
0.0
 10
7.950113
 20
6.587935
 30
0.0
 10
8.626612
 20
6.582021
 30
0.0
 10
8.867799
 20
6.582021
 30
0.0
 10
9.108985
 20
6.582021
 30
0.0
 10
9.250168
 20
6.740218
 30
0.0
 10
9.391350
 20
6.898387
 30
0.0
 10
8.736911
 20
6.949674
 30
0.0
 10
8.179535
 20
7.027266
 30
0.0
 10
7.955996
 20
7.154679
 30
0.0
 10
7.873639
 20
7.378780
 30
0.0
 10
7.892757
 20
7.602853
 30
0.0
 10
7.955995
 20
7.870862
 30
0.0
 10
8.067765
 20
8.365900
 30
0.0
 10
8.285421
 20
9.370595
 30
0.0
 10
8.886917
 20
11.952670
 30
0.0
 10
9.250167
 20
13.401145
 30
0.0
 10
9.050159
 20
13.295699
 30
0.0
 10
8.850151
 20
13.190253
 30
0.0
 10
8.081001
 20
12.783086
 30
0.0
 10
7.638335
 20
12.569265
 30
0.0
 10
7.180963
 20
12.364231
 30
0.0
 10
6.485345
 20
12.053723
 30
0.0
 10
6.661824
 20
11.965851
 30
0.0
 10
6.838302
 20
11.877979
 30
0.0
 10
7.182434
 20
11.999535
 30
0.0
 10
7.473622
 20
12.112304
 30
0.0
 10
7.650100
 20
12.182629
 30
0.0
 10
7.826578
 20
12.252927
 30
0.0
 10
7.942760
 20
12.298299
 30
0.0
 10
8.156004
 20
12.370089
 30
0.0
 10
7.597157
 20
9.974037
 30
0.0
 10
7.038310
 20
7.577956
 30
0.0
 10
6.882421
 20
7.129783
 30
0.0
 10
6.532406
 20
7.015549
 30
0.0
 10
5.925028
 20
6.943787
 30
0.0
 10
5.591190
 20
6.898387
 30
0.0
 10
5.420595
 20
6.740218
 30
0.0
 10
5.249999
 20
6.582021
 30
0.0
  0
LWPOLYLINE
  5
101
100
AcDbEntity
  8
Layer_1
 62
7
100
AcDbPolyline
 90
13
 70
0
 10
13.926283
 20
13.330847
 30
0.0
 10
12.636523
 20
12.929538
 30
0.0
 10
11.549712
 20
11.877979
 30
0.0
 10
10.848213
 20
10.246439
 30
0.0
 10
10.561436
 20
8.421552
 30
0.0
 10
10.908509
 20
6.986259
 30
0.0
 10
11.926199
 20
6.500007
 30
0.0
 10
13.338023
 20
6.942323
 30
0.0
 10
14.396891
 20
8.175512
 30
0.0
 10
14.979268
 20
9.780691
 30
0.0
 10
15.208689
 20
11.456195
 30
0.0
 10
14.885146
 20
12.859241
 30
0.0
 10
13.926283
 20
13.330847
 30
0.0
  0
LWPOLYLINE
  5
102
100
AcDbEntity
  8
Layer_1
 62
7
100
AcDbPolyline
 90
13
 70
0
 10
13.349788
 20
12.838766
 30
0.0
 10
13.965990
 20
12.387663
 30
0.0
 10
14.185117
 20
11.092964
 30
0.0
 10
14.014522
 20
9.556618
 30
0.0
 10
13.561562
 20
8.046633
 30
0.0
 10
13.060070
 20
7.222076
 30
0.0
 10
12.479163
 20
6.933536
 30
0.0
 10
11.837960
 20
7.384639
 30
0.0
 10
11.585008
 20
8.538715
 30
0.0
 10
11.726191
 20
9.853917
 30
0.0
 10
12.043851
 20
11.256991
 30
0.0
 10
12.612992
 20
12.443315
 30
0.0
 10
13.349788
 20
12.838766
 30
0.0
  0
ENDSEC
  0
SECTION
  2
OBJECTS
  0
DICTIONARY
  5
C
330
0
100
AcDbDictionary
  3
ACAD_GROUP
350
D
  3
ACAD_MLINESTYLE
350
17
  0
DICTIONARY
  5
D
330
C
100
AcDbDictionary
  0
DICTIONARY
  5
1A
330
C
100
AcDbDictionary
  0
DICTIONARY
  5
17
330
C
100
AcDbDictionary
  3
STANDARD
350
18
  0
DICTIONARY
  5
19
330
C
100
AcDbDictionary
  0
ENDSEC
  0
EOF
