  0
SECTION
  2
HEADER
  9
$ACADVER
  1
AC1014
  9
$HANDSEED
  5
FFFF
  9
$MEASUREMENT
 70
     1
  0
ENDSEC
  0
SECTION
  2
TABLES
  0
TABLE
  2
VPORT
  5
8
330
0
100
AcDbSymbolTable
 70
     4
  0
VPORT
  5
2E
330
8
100
AcDbSymbolTableRecord
100
AcDbViewportTableRecord
  2
*ACTIVE
 70
     0
 10
0.0
 20
0.0
 11
1.0
 21
1.0
 12
210.0
 22
148.5
 13
0.0
 23
0.0
 14
10.0
 24
10.0
 15
10.0
 25
10.0
 16
0.0
 26
0.0
 36
1.0
 17
0.0
 27
0.0
 37
0.0
 40
341.0
 41
1.24
 42
50.0
 43
0.0
 44
0.0
 50
0.0
 51
0.0
 71
     0
 72
   100
 73
     1
 74
     3
 75
     0
 76
     0
 77
     0
 78
     0
  0
ENDTAB
  0
TABLE
  2
LTYPE
  5
5
330
0
100
AcDbSymbolTable
 70
     1
  0
LTYPE
  5
14
330
5
100
AcDbSymbolTableRecord
100
AcDbLinetypeTableRecord
  2
BYBLOCK
 70
     0
  3

 72
    65
 73
     0
 40
0.0
  0
LTYPE
  5
15
330
5
100
AcDbSymbolTableRecord
100
AcDbLinetypeTableRecord
  2
BYLAYER
 70
     0
  3

 72
    65
 73
     0
 40
0.0
  0
LTYPE
  5
16
330
5
100
AcDbSymbolTableRecord
100
AcDbLinetypeTableRecord
  2
CONTINUOUS
 70
     0
  3
Solid line
 72
    65
 73
     0
 40
0.0
  0
ENDTAB
  0
TABLE
  2
LAYER
  5
2
100
AcDbSymbolTable
 70
2
  0
LAYER
  5
50
100
AcDbSymbolTableRecord
100
AcDbLayerTableRecord
  2
0
 70
0
  6
CONTINUOUS
  0
LAYER
  5
51
100
AcDbSymbolTableRecord
100
AcDbLayerTableRecord
  2
Layer_1
 70
0
  6
CONTINUOUS
  0
ENDTAB
  0
TABLE
  2
STYLE
  5
3
330
0
100
AcDbSymbolTable
 70
     1
  0
STYLE
  5
11
330
3
100
AcDbSymbolTableRecord
100
AcDbTextStyleTableRecord
  2
STANDARD
 70
     0
 40
0.0
 41
1.0
 50
0.0
 71
     0
 42
2.5
  3
txt
  4

  0
ENDTAB
  0
TABLE
  2
VIEW
  5
6
330
0
100
AcDbSymbolTable
 70
     0
  0
ENDTAB
  0
TABLE
  2
UCS
  5
7
330
0
100
AcDbSymbolTable
 70
     0
  0
ENDTAB
  0
TABLE
  2
APPID
  5
9
330
0
100
AcDbSymbolTable
 70
     2
  0
APPID
  5
12
330
9
100
AcDbSymbolTableRecord
100
AcDbRegAppTableRecord
  2
ACAD
 70
     0
  0
ENDTAB
  0
TABLE
  2
DIMSTYLE
  5
A
330
0
100
AcDbSymbolTable
 70
     1
  0
DIMSTYLE
105
27
330
A
100
AcDbSymbolTableRecord
100
AcDbDimStyleTableRecord
  2
ISO-25
 70
     0
  3

  4

  5

  6

  7

 40
1.0
 41
2.5
 42
0.625
 43
3.75
 44
1.25
 45
0.0
 46
0.0
 47
0.0
 48
0.0
140
2.5
141
2.5
142
0.0
143
0.03937007874016
144
1.0
145
0.0
146
1.0
147
0.625
 71
     0
 72
     0
 73
     0
 74
     0
 75
     0
 76
     0
 77
     1
 78
     8
170
     0
171
     3
172
     1
173
     0
174
     0
175
     0
176
     0
177
     0
178
     0
270
     2
271
     2
272
     2
273
     2
274
     3
340
11
275
     0
280
     0
281
     0
282
     0
283
     0
284
     8
285
     0
286
     0
287
     3
288
     0
  0
ENDTAB
  0
TABLE
  2
BLOCK_RECORD
  5
1
330
0
100
AcDbSymbolTable
 70
     1
  0
BLOCK_RECORD
  5
1F
330
1
100
AcDbSymbolTableRecord
100
AcDbBlockTableRecord
  2
*MODEL_SPACE
  0
BLOCK_RECORD
  5
1B
330
1
100
AcDbSymbolTableRecord
100
AcDbBlockTableRecord
  2
*PAPER_SPACE
  0
ENDTAB
  0
ENDSEC
  0
SECTION
  2
BLOCKS
  0
BLOCK
  5
20
330
1F
100
AcDbEntity
  8
0
100
AcDbBlockBegin
  2
*MODEL_SPACE
 70
     0
 10
0.0
 20
0.0
 30
0.0
  3
*MODEL_SPACE
  1

  0
ENDBLK
  5
21
330
1F
100
AcDbEntity
  8
0
100
AcDbBlockEnd
  0
BLOCK
  5
1C
330
1B
100
AcDbEntity
 67
     1
  8
0
100
AcDbBlockBegin
  2
*PAPER_SPACE
  1

  0
ENDBLK
  5
1D
330
1B
100
AcDbEntity
 67
     1
  8
0
100
AcDbBlockEnd
  0
ENDSEC
  0
SECTION
  2
ENTITIES
  0
LWPOLYLINE
  5
100
100
AcDbEntity
  8
Layer_1
 62
7
100
AcDbPolyline
 90
43
 70
0
 10
5.250000
 20
6.700487
 30
0.0
 10
5.586391
 20
6.700487
 30
0.0
 10
5.922783
 20
6.700487
 30
0.0
 10
6.504793
 20
6.706389
 30
0.0
 10
7.086804
 20
6.712291
 30
0.0
 10
7.700851
 20
6.706389
 30
0.0
 10
8.314899
 20
6.700487
 30
0.0
 10
8.533821
 20
6.700487
 30
0.0
 10
8.752742
 20
6.700487
 30
0.0
 10
8.880891
 20
6.859702
 30
0.0
 10
9.009040
 20
7.018915
 30
0.0
 10
8.415016
 20
7.070518
 30
0.0
 10
7.909094
 20
7.148647
 30
0.0
 10
7.706191
 20
7.276902
 30
0.0
 10
7.631438
 20
7.502458
 30
0.0
 10
7.648792
 20
7.728011
 30
0.0
 10
7.706192
 20
7.997793
 30
0.0
 10
7.807643
 20
8.496077
 30
0.0
 10
8.005206
 20
9.507387
 30
0.0
 10
8.551175
 20
12.106423
 30
0.0
 10
8.880892
 20
13.564419
 30
0.0
 10
8.699347
 20
13.458277
 30
0.0
 10
8.517803
 20
13.352133
 30
0.0
 10
7.819657
 20
12.942300
 30
0.0
 10
7.417856
 20
12.727065
 30
0.0
 10
7.002706
 20
12.520675
 30
0.0
 10
6.371305
 20
12.208142
 30
0.0
 10
6.531492
 20
12.119692
 30
0.0
 10
6.691678
 20
12.031238
 30
0.0
 10
7.004041
 20
12.153597
 30
0.0
 10
7.268349
 20
12.267112
 30
0.0
 10
7.428535
 20
12.337875
 30
0.0
 10
7.588722
 20
12.408637
 30
0.0
 10
7.694178
 20
12.454335
 30
0.0
 10
7.887736
 20
12.526574
 30
0.0
 10
7.380480
 20
10.114763
 30
0.0
 10
6.873222
 20
7.702949
 30
0.0
 10
6.731724
 20
7.251841
 30
0.0
 10
6.414022
 20
7.136852
 30
0.0
 10
5.862713
 20
7.064616
 30
0.0
 10
5.559694
 20
7.018915
 30
0.0
 10
5.404847
 20
6.859702
 30
0.0
 10
5.250000
 20
6.700487
 30
0.0
  0
LWPOLYLINE
  5
101
100
AcDbEntity
  8
Layer_1
 62
7
100
AcDbPolyline
 90
51
 70
0
 10
9.611908
 20
6.499992
 30
0.0
 10
10.111156
 20
7.032184
 30
0.0
 10
10.466236
 20
7.148647
 30
0.0
 10
10.650450
 20
7.130971
 30
0.0
 10
10.882721
 20
7.077897
 30
0.0
 10
12.118825
 20
6.796322
 30
0.0
 10
12.890390
 20
6.665116
 30
0.0
 10
13.005190
 20
6.676920
 30
0.0
 10
13.136009
 20
6.724092
 30
0.0
 10
13.605889
 20
7.502476
 30
0.0
 10
14.075769
 20
8.280860
 30
0.0
 10
14.033053
 20
8.416488
 30
0.0
 10
13.990336
 20
8.552114
 30
0.0
 10
13.318889
 20
7.674958
 30
0.0
 10
12.943785
 20
7.514268
 30
0.0
 10
12.847674
 20
7.523106
 30
0.0
 10
12.719524
 20
7.549651
 30
0.0
 10
11.687657
 20
7.738350
 30
0.0
 10
10.807967
 20
7.891666
 30
0.0
 10
11.464731
 20
8.563906
 30
0.0
 10
12.121495
 20
9.236148
 30
0.0
 10
12.596715
 20
9.725587
 30
0.0
 10
13.071935
 20
10.215027
 30
0.0
 10
13.338912
 20
10.492179
 30
0.0
 10
13.605889
 20
10.769329
 30
0.0
 10
13.940945
 20
11.488746
 30
0.0
 10
14.043732
 20
12.208160
 30
0.0
 10
13.742047
 20
13.110380
 30
0.0
 10
12.943785
 20
13.446500
 30
0.0
 10
12.129505
 20
13.284336
 30
0.0
 10
11.395317
 20
12.821433
 30
0.0
 10
10.957474
 20
12.259757
 30
0.0
 10
10.807967
 20
11.583096
 30
0.0
 10
10.815975
 20
11.454838
 30
0.0
 10
10.840003
 20
11.300047
 30
0.0
 10
11.219110
 20
11.252872
 30
0.0
 10
11.598218
 20
11.205697
 30
0.0
 10
11.498102
 20
11.593414
 30
0.0
 10
11.470069
 20
11.901524
 30
0.0
 10
11.713019
 20
12.681382
 30
0.0
 10
12.356434
 20
12.974752
 30
0.0
 10
12.977156
 20
12.648951
 30
0.0
 10
13.221440
 20
11.818970
 30
0.0
 10
13.146687
 20
11.255820
 30
0.0
 10
12.943784
 20
10.745742
 30
0.0
 10
12.511281
 20
10.129521
 30
0.0
 10
11.630256
 20
9.177181
 30
0.0
 10
10.279351
 20
7.748668
 30
0.0
 10
9.569191
 20
6.842029
 30
0.0
 10
9.590549
 20
6.671021
 30
0.0
 10
9.611907
 20
6.500010
 30
0.0
  0
ENDSEC
  0
SECTION
  2
OBJECTS
  0
DICTIONARY
  5
C
330
0
100
AcDbDictionary
  3
ACAD_GROUP
350
D
  3
ACAD_MLINESTYLE
350
17
  0
DICTIONARY
  5
D
330
C
100
AcDbDictionary
  0
DICTIONARY
  5
1A
330
C
100
AcDbDictionary
  0
DICTIONARY
  5
17
330
C
100
AcDbDictionary
  3
STANDARD
350
18
  0
DICTIONARY
  5
19
330
C
100
AcDbDictionary
  0
ENDSEC
  0
EOF
