  0
SECTION
  2
HEADER
  9
$ACADVER
  1
AC1014
  9
$HANDSEED
  5
FFFF
  9
$MEASUREMENT
 70
     1
  0
ENDSEC
  0
SECTION
  2
TABLES
  0
TABLE
  2
VPORT
  5
8
330
0
100
AcDbSymbolTable
 70
     4
  0
VPORT
  5
2E
330
8
100
AcDbSymbolTableRecord
100
AcDbViewportTableRecord
  2
*ACTIVE
 70
     0
 10
0.0
 20
0.0
 11
1.0
 21
1.0
 12
210.0
 22
148.5
 13
0.0
 23
0.0
 14
10.0
 24
10.0
 15
10.0
 25
10.0
 16
0.0
 26
0.0
 36
1.0
 17
0.0
 27
0.0
 37
0.0
 40
341.0
 41
1.24
 42
50.0
 43
0.0
 44
0.0
 50
0.0
 51
0.0
 71
     0
 72
   100
 73
     1
 74
     3
 75
     0
 76
     0
 77
     0
 78
     0
  0
ENDTAB
  0
TABLE
  2
LTYPE
  5
5
330
0
100
AcDbSymbolTable
 70
     1
  0
LTYPE
  5
14
330
5
100
AcDbSymbolTableRecord
100
AcDbLinetypeTableRecord
  2
BYBLOCK
 70
     0
  3

 72
    65
 73
     0
 40
0.0
  0
LTYPE
  5
15
330
5
100
AcDbSymbolTableRecord
100
AcDbLinetypeTableRecord
  2
BYLAYER
 70
     0
  3

 72
    65
 73
     0
 40
0.0
  0
LTYPE
  5
16
330
5
100
AcDbSymbolTableRecord
100
AcDbLinetypeTableRecord
  2
CONTINUOUS
 70
     0
  3
Solid line
 72
    65
 73
     0
 40
0.0
  0
ENDTAB
  0
TABLE
  2
LAYER
  5
2
100
AcDbSymbolTable
 70
2
  0
LAYER
  5
50
100
AcDbSymbolTableRecord
100
AcDbLayerTableRecord
  2
0
 70
0
  6
CONTINUOUS
  0
LAYER
  5
51
100
AcDbSymbolTableRecord
100
AcDbLayerTableRecord
  2
Layer_1
 70
0
  6
CONTINUOUS
  0
ENDTAB
  0
TABLE
  2
STYLE
  5
3
330
0
100
AcDbSymbolTable
 70
     1
  0
STYLE
  5
11
330
3
100
AcDbSymbolTableRecord
100
AcDbTextStyleTableRecord
  2
STANDARD
 70
     0
 40
0.0
 41
1.0
 50
0.0
 71
     0
 42
2.5
  3
txt
  4

  0
ENDTAB
  0
TABLE
  2
VIEW
  5
6
330
0
100
AcDbSymbolTable
 70
     0
  0
ENDTAB
  0
TABLE
  2
UCS
  5
7
330
0
100
AcDbSymbolTable
 70
     0
  0
ENDTAB
  0
TABLE
  2
APPID
  5
9
330
0
100
AcDbSymbolTable
 70
     2
  0
APPID
  5
12
330
9
100
AcDbSymbolTableRecord
100
AcDbRegAppTableRecord
  2
ACAD
 70
     0
  0
ENDTAB
  0
TABLE
  2
DIMSTYLE
  5
A
330
0
100
AcDbSymbolTable
 70
     1
  0
DIMSTYLE
105
27
330
A
100
AcDbSymbolTableRecord
100
AcDbDimStyleTableRecord
  2
ISO-25
 70
     0
  3

  4

  5

  6

  7

 40
1.0
 41
2.5
 42
0.625
 43
3.75
 44
1.25
 45
0.0
 46
0.0
 47
0.0
 48
0.0
140
2.5
141
2.5
142
0.0
143
0.03937007874016
144
1.0
145
0.0
146
1.0
147
0.625
 71
     0
 72
     0
 73
     0
 74
     0
 75
     0
 76
     0
 77
     1
 78
     8
170
     0
171
     3
172
     1
173
     0
174
     0
175
     0
176
     0
177
     0
178
     0
270
     2
271
     2
272
     2
273
     2
274
     3
340
11
275
     0
280
     0
281
     0
282
     0
283
     0
284
     8
285
     0
286
     0
287
     3
288
     0
  0
ENDTAB
  0
TABLE
  2
BLOCK_RECORD
  5
1
330
0
100
AcDbSymbolTable
 70
     1
  0
BLOCK_RECORD
  5
1F
330
1
100
AcDbSymbolTableRecord
100
AcDbBlockTableRecord
  2
*MODEL_SPACE
  0
BLOCK_RECORD
  5
1B
330
1
100
AcDbSymbolTableRecord
100
AcDbBlockTableRecord
  2
*PAPER_SPACE
  0
ENDTAB
  0
ENDSEC
  0
SECTION
  2
BLOCKS
  0
BLOCK
  5
20
330
1F
100
AcDbEntity
  8
0
100
AcDbBlockBegin
  2
*MODEL_SPACE
 70
     0
 10
0.0
 20
0.0
 30
0.0
  3
*MODEL_SPACE
  1

  0
ENDBLK
  5
21
330
1F
100
AcDbEntity
  8
0
100
AcDbBlockEnd
  0
BLOCK
  5
1C
330
1B
100
AcDbEntity
 67
     1
  8
0
100
AcDbBlockBegin
  2
*PAPER_SPACE
  1

  0
ENDBLK
  5
1D
330
1B
100
AcDbEntity
 67
     1
  8
0
100
AcDbBlockEnd
  0
ENDSEC
  0
SECTION
  2
ENTITIES
  0
LWPOLYLINE
  5
100
100
AcDbEntity
  8
Layer_1
 62
7
100
AcDbPolyline
 90
51
 70
0
 10
8.039429
 20
6.499992
 30
0.0
 10
8.538676
 20
7.032184
 30
0.0
 10
8.893756
 20
7.148647
 30
0.0
 10
9.077971
 20
7.130971
 30
0.0
 10
9.310241
 20
7.077897
 30
0.0
 10
10.546345
 20
6.796322
 30
0.0
 10
11.317910
 20
6.665116
 30
0.0
 10
11.432710
 20
6.676920
 30
0.0
 10
11.563529
 20
6.724092
 30
0.0
 10
12.033409
 20
7.502476
 30
0.0
 10
12.503289
 20
8.280860
 30
0.0
 10
12.460573
 20
8.416488
 30
0.0
 10
12.417857
 20
8.552114
 30
0.0
 10
11.746409
 20
7.674958
 30
0.0
 10
11.371305
 20
7.514268
 30
0.0
 10
11.275194
 20
7.523106
 30
0.0
 10
11.147045
 20
7.549651
 30
0.0
 10
10.115177
 20
7.738350
 30
0.0
 10
9.235487
 20
7.891666
 30
0.0
 10
9.892251
 20
8.563906
 30
0.0
 10
10.549015
 20
9.236148
 30
0.0
 10
11.024235
 20
9.725587
 30
0.0
 10
11.499455
 20
10.215027
 30
0.0
 10
11.766432
 20
10.492179
 30
0.0
 10
12.033409
 20
10.769329
 30
0.0
 10
12.368466
 20
11.488746
 30
0.0
 10
12.471252
 20
12.208160
 30
0.0
 10
12.169567
 20
13.110380
 30
0.0
 10
11.371305
 20
13.446500
 30
0.0
 10
10.557025
 20
13.284336
 30
0.0
 10
9.822837
 20
12.821433
 30
0.0
 10
9.384994
 20
12.259757
 30
0.0
 10
9.235487
 20
11.583096
 30
0.0
 10
9.243495
 20
11.454838
 30
0.0
 10
9.267523
 20
11.300047
 30
0.0
 10
9.646631
 20
11.252872
 30
0.0
 10
10.025738
 20
11.205697
 30
0.0
 10
9.925622
 20
11.593414
 30
0.0
 10
9.897589
 20
11.901524
 30
0.0
 10
10.140539
 20
12.681382
 30
0.0
 10
10.783954
 20
12.974752
 30
0.0
 10
11.404676
 20
12.648951
 30
0.0
 10
11.648961
 20
11.818970
 30
0.0
 10
11.574207
 20
11.255820
 30
0.0
 10
11.371304
 20
10.745742
 30
0.0
 10
10.938801
 20
10.129521
 30
0.0
 10
10.057776
 20
9.177181
 30
0.0
 10
8.706871
 20
7.748668
 30
0.0
 10
7.996711
 20
6.842029
 30
0.0
 10
8.018069
 20
6.671021
 30
0.0
 10
8.039427
 20
6.500010
 30
0.0
  0
ENDSEC
  0
SECTION
  2
OBJECTS
  0
DICTIONARY
  5
C
330
0
100
AcDbDictionary
  3
ACAD_GROUP
350
D
  3
ACAD_MLINESTYLE
350
17
  0
DICTIONARY
  5
D
330
C
100
AcDbDictionary
  0
DICTIONARY
  5
1A
330
C
100
AcDbDictionary
  0
DICTIONARY
  5
17
330
C
100
AcDbDictionary
  3
STANDARD
350
18
  0
DICTIONARY
  5
19
330
C
100
AcDbDictionary
  0
ENDSEC
  0
EOF
